<svg xmlns="http://www.w3.org/2000/svg" viewBox="0 0 512 512" width="512" height="512" role="img" aria-label="Shiori">
<title>Shiori</title>
<defs><radialGradient id="bg" cx=".5" cy=".38" r=".7">
  <stop offset="0" stop-color="#2a0f4d"/><stop offset="1" stop-color="#0a0519"/></radialGradient></defs>
<rect width="512" height="512" rx="112" fill="url(#bg)"/>
<defs>
  <linearGradient id="gi" x1="0" y1="0" x2="1" y2="1">
    <stop offset="0" stop-color="#bc13fe"/><stop offset="1" stop-color="#00f2ff"/>
  </linearGradient>
  <mask id="mi"><rect width="100%" height="100%" fill="#fff"/><path d="M234.0 180.0L234.0 260.0Q234.0 268.0 241.0 264.0L295.0 227.0Q301.0 220.0 295.0 213.0L241.0 176.0Q234.0 172.0 234.0 180.0Z" fill="#000"/></mask>
</defs>
<path d="M166.0 124.0Q166.0 96.0 194.0 96.0H318.0Q346.0 96.0 346.0 124.0V416.0L256.0 346.0L166.0 416.0Z" fill="url(#gi)" mask="url(#mi)"/>
<path d="M166.0 124.0Q166.0 96.0 194.0 96.0L242.0 96.0L166.0 172.0Z" fill="#fff" opacity=".18" mask="url(#mi)"/>
</svg>
